<svg width="125" height="25" viewBox="0 0 125 25" fill="none" xmlns="http://www.w3.org/2000/svg">
<path d="M124.144 19.566C123.572 19.566 123.159 19.4135 122.905 19.1083C122.663 18.8032 122.51 18.4218 122.447 17.9641H122.351C122.135 18.5744 121.779 19.0321 121.284 19.3372C120.788 19.6423 120.197 19.7949 119.51 19.7949C118.468 19.7949 117.654 19.5279 117.069 18.9939C116.497 18.46 116.211 17.7353 116.211 16.8199C116.211 15.8919 116.548 15.1799 117.222 14.6841C117.908 14.1883 118.97 13.9404 120.406 13.9404H122.351V12.9678C122.351 12.2686 122.161 11.7346 121.779 11.3659C121.398 10.9972 120.813 10.8129 120.025 10.8129C119.427 10.8129 118.925 10.9464 118.518 11.2134C118.124 11.4803 117.794 11.8363 117.527 12.2813L116.611 11.4231C116.878 10.8892 117.304 10.4379 117.889 10.0692C118.474 9.68777 119.211 9.49707 120.101 9.49707C121.296 9.49707 122.224 9.78948 122.885 10.3743C123.547 10.9591 123.877 11.7728 123.877 12.8152V18.2311H125.002V19.566H124.144ZM119.758 18.4981C120.139 18.4981 120.489 18.4536 120.807 18.3646C121.125 18.2756 121.398 18.1485 121.627 17.9832C121.856 17.8179 122.034 17.6272 122.161 17.4111C122.288 17.195 122.351 16.9598 122.351 16.7055V15.0846H120.33C119.453 15.0846 118.811 15.2117 118.404 15.466C118.01 15.7202 117.813 16.0889 117.813 16.572V16.9725C117.813 17.4556 117.984 17.8307 118.328 18.0976C118.684 18.3646 119.16 18.4981 119.758 18.4981Z" fill="white"/>
<path d="M111.062 19.7949C110.375 19.7949 109.759 19.6741 109.212 19.4325C108.665 19.191 108.201 18.8477 107.82 18.4028C107.451 17.9578 107.165 17.4175 106.962 16.7818C106.771 16.1461 106.676 15.4342 106.676 14.646C106.676 13.8577 106.771 13.1458 106.962 12.5101C107.165 11.8745 107.451 11.3341 107.82 10.8892C108.201 10.4442 108.665 10.101 109.212 9.8594C109.759 9.61785 110.375 9.49707 111.062 9.49707C112.041 9.49707 112.823 9.7132 113.407 10.1454C114.005 10.565 114.45 11.118 114.742 11.8045L113.465 12.4529C113.287 11.9444 112.994 11.5503 112.587 11.2706C112.181 10.9909 111.672 10.851 111.062 10.851C110.604 10.851 110.204 10.9273 109.86 11.0799C109.517 11.2197 109.231 11.4231 109.002 11.6901C108.773 11.9444 108.602 12.2559 108.487 12.6245C108.373 12.9805 108.316 13.3746 108.316 13.8069V15.485C108.316 16.3496 108.545 17.0615 109.002 17.6209C109.473 18.1676 110.159 18.4409 111.062 18.4409C112.295 18.4409 113.185 17.8688 113.732 16.7246L114.838 17.4683C114.52 18.1803 114.043 18.746 113.407 19.1656C112.785 19.5851 112.003 19.7949 111.062 19.7949Z" fill="white"/>
<path d="M103.395 7.41831C103.065 7.41831 102.823 7.34203 102.671 7.18947C102.531 7.0242 102.461 6.81443 102.461 6.56016V6.31225C102.461 6.05798 102.531 5.85457 102.671 5.70201C102.823 5.53674 103.065 5.4541 103.395 5.4541C103.726 5.4541 103.961 5.53674 104.101 5.70201C104.254 5.85457 104.33 6.05798 104.33 6.31225V6.56016C104.33 6.81443 104.254 7.0242 104.101 7.18947C103.961 7.34203 103.726 7.41831 103.395 7.41831ZM102.633 9.72578H104.158V19.5659H102.633V9.72578Z" fill="white"/>
<path d="M95.6309 19.5657V9.72559H97.1565V11.5372H97.2518C97.4298 11.0668 97.7476 10.6473 98.2053 10.2786C98.663 9.90993 99.2923 9.72559 100.093 9.72559H100.684V11.2512H99.7881C98.9617 11.2512 98.3134 11.4101 97.843 11.7279C97.3853 12.0331 97.1565 12.4208 97.1565 12.8912V19.5657H95.6309Z" fill="white"/>
<path d="M91.1189 19.5661C90.5849 19.5661 90.1781 19.4199 89.8984 19.1275C89.6314 18.8224 89.4979 18.4283 89.4979 17.9452V11.0609H87.877V9.72603H88.7923C89.1229 9.72603 89.3453 9.66246 89.4598 9.53533C89.5869 9.39548 89.6505 9.16029 89.6505 8.82974V6.99902H91.0235V9.72603H93.1784V11.0609H91.0235V18.2312H93.0259V19.5661H91.1189Z" fill="white"/>
<path d="M82.1781 19.7949C81.5043 19.7949 80.8941 19.6741 80.3474 19.4325C79.8135 19.191 79.3494 18.8477 78.9553 18.4028C78.5739 17.9451 78.2752 17.4048 78.059 16.7818C77.8556 16.1461 77.7539 15.4342 77.7539 14.646C77.7539 13.8705 77.8556 13.1649 78.059 12.5292C78.2752 11.8935 78.5739 11.3532 78.9553 10.9082C79.3494 10.4506 79.8135 10.101 80.3474 9.8594C80.8941 9.61785 81.5043 9.49707 82.1781 9.49707C82.8392 9.49707 83.4304 9.61785 83.9516 9.8594C84.4729 10.101 84.9179 10.4379 85.2865 10.8701C85.6552 11.2896 85.9349 11.7918 86.1256 12.3766C86.329 12.9614 86.4307 13.6035 86.4307 14.3027V15.0274H79.3558V15.485C79.3558 15.9046 79.4194 16.2987 79.5465 16.6674C79.6863 17.0234 79.877 17.3348 80.1186 17.6018C80.3729 17.8688 80.678 18.0786 81.0339 18.2311C81.4026 18.3837 81.8158 18.46 82.2735 18.46C82.8964 18.46 83.4368 18.3138 83.8944 18.0214C84.3648 17.7289 84.7272 17.3094 84.9814 16.7627L86.0684 17.5446C85.7506 18.2184 85.2548 18.7651 84.581 19.1846C83.9072 19.5914 83.1062 19.7949 82.1781 19.7949ZM82.1781 10.7748C81.7586 10.7748 81.3772 10.851 81.0339 11.0036C80.6907 11.1434 80.3919 11.3469 80.1377 11.6138C79.8961 11.8808 79.7054 12.1987 79.5656 12.5673C79.4257 12.9233 79.3558 13.3174 79.3558 13.7497V13.8832H84.7907V13.6734C84.7907 12.7962 84.5492 12.0969 84.0661 11.5757C83.5957 11.0417 82.9664 10.7748 82.1781 10.7748Z" fill="white"/>
<path d="M73.5303 8.35258H73.435L72.3098 10.5838L69.1252 16.381L65.9405 10.5838L64.8153 8.35258H64.72V19.5657H63.1562V6.25488H65.2921L69.1061 13.4252H69.2014L73.0345 6.25488H75.0941V19.5657H73.5303V8.35258Z" fill="white"/>
<path fill-rule="evenodd" clip-rule="evenodd" d="M24.93 0H0V12.465C0 19.3492 5.58078 24.93 12.465 24.93C19.3493 24.93 24.93 19.3493 24.93 12.465V0ZM11.3325 6.57393H6.94261L11.3962 13.1479H6.94261L12.4651 21.2997L17.9876 13.1479H13.534L17.9876 6.57393H13.4399L17.8298 4.84975e-05H6.94261L11.3325 6.57393Z" fill="white"/>
<path fill-rule="evenodd" clip-rule="evenodd" d="M37.1927 0H28.7051L33.6613 12.4402L28.7051 24.8804H37.1892L40.1113 20.5671H35.6577L41.1651 12.4376L35.6577 4.30813H40.1113L37.1927 0ZM45.171 24.8804L42.2491 20.5671H46.7026L41.1952 12.4376L46.7026 4.30813H42.2491L45.1675 0H53.6351L48.6789 12.4402L53.6351 24.8804H45.171Z" fill="white"/>
</svg>
